<svg xmlns="http://www.w3.org/2000/svg" height="32" width="36.704"><defs><clipPath id="a" clipPathUnits="userSpaceOnUse"><path d="M0 24h27.528V0H0z"/></clipPath></defs><g clip-path="url(#a)" transform="matrix(1.33333 0 0 -1.33333 0 32)"><path d="M23.402 4.571c-2.21.838-5.79 1.371-9.676 1.371-3.81 0-7.39-.457-9.6-1.295v.762c2.133.838 5.714 1.295 9.6 1.295 3.886 0 7.543-.533 9.676-1.37zm-.076-.838a.602.602 0 00-.61-.61.6.6 0 00-.609.61.6.6 0 00.61.61.6.6 0 00.61-.61m.075-1.372v-.76c-2.21.837-5.79 1.37-9.676 1.37-3.81 0-7.39-.457-9.6-1.295v.762c2.133.838 5.714 1.295 9.6 1.295 3.886 0 7.466-.457 9.676-1.372m-9.6-2.285c-3.886 0-7.39.457-9.6 1.295 2.21.838 5.714 1.295 9.524 1.295 3.886 0 7.39-.457 9.6-1.295C21.116.61 17.612.076 13.802.076M5.954 4.114l1.677-.61c-.99-.152-1.829-.304-2.59-.533.304.152.532.457.532.762a.846.846 0 01-.838.838h-.152c.838.305 1.752.533 2.895.686zm1.524.914l1.295-.457-1.142-.838-1.219.457zm2.21-.305c0-.457.381-.838.838-.914-.99-.076-1.905-.152-2.743-.305l1.448 1.067-1.677.61c.915.152 1.905.304 2.972.38-.534 0-.838-.38-.838-.838m1.524 0a.682.682 0 00-.686-.685.682.682 0 00-.686.685c0 .381.305.686.686.686a.683.683 0 00.686-.686m.914.077l1.6-.915c-.99 0-1.98 0-2.972-.076a.893.893 0 01.686.838c0 .457-.38.914-.914.914 1.066.153 2.133.153 3.2.153zm2.82 0l-1.22-.61-1.219.61 1.22.685zm1.066-.077c0-.457.304-.762.685-.838-.99.076-1.98.076-2.97.076l1.6.915-1.6.838c1.065 0 2.132-.076 3.123-.153a.844.844 0 01-.838-.838m1.6 0a.682.682 0 00-.686-.685.682.682 0 00-.686.685c0 .381.305.686.686.686a.683.683 0 00.686-.686m.61-.152l1.447-1.067c-.838.153-1.753.23-2.743.305.457 0 .838.381.838.914a.828.828 0 01-.686.838c.991-.076 1.981-.228 2.895-.38zm1.751.686c1.067-.153 2.058-.38 2.896-.686h-.153a.846.846 0 01-.838-.838c0-.38.23-.686.534-.762-.762.23-1.677.457-2.667.61l1.676.61zm.991-1.067l-1.219-.457-1.067.838 1.295.457zM4.735 3.123a.6.6 0 00-.609.61.6.6 0 00.61.61.6.6 0 00.61-.61c0-.38-.23-.61-.61-.61m18.818 1.143v1.22h-.076c-2.209.837-5.866 1.371-9.828 1.371-3.886 0-7.543-.534-9.753-1.372h-.076V4.266l.152.076c.077.077.23.077.305.153a.838.838 0 01-.457-.762c0-.457.381-.838.838-.838h.153c-.229-.076-.534-.229-.839-.305h-.076V1.371h.076C6.183.533 9.84.001 13.803.001c3.885 0 7.542.532 9.751 1.37h.077V2.59h-.077c-.304.152-.685.23-.99.381h.228c.458 0 .84.381.84.838 0 .305-.154.61-.459.762.153-.076.23-.076.305-.152z" fill="#86754d"/><path d="M24.621 7.238c-.076-.152-.152-.229-.229-.38-.304-.458-.838-.458-.914-.458-3.124.99-6.4 1.524-9.752 1.524-3.353 0-6.629-.534-9.753-1.524-.076 0-.533 0-.914.457-.076.076-.152.23-.228.381-.38.61-.99 1.6-2.439 2.82.61.228 1.067.304 1.448.075.457-.228.61-.762.61-.762 0-.076.076-.076.076-.076.076 0 .076 0 .076.076.23.153.381.305.457.305.23.152.533.23.838.23.305 0 .381-.078.381-.078s.61-.38.305-1.142c0 0-.076-.153-.305-.305-.228-.153-.686-.305-1.295-.076h-.076l-.076-.077c0-.228.076-.457.152-.609.152-.229.61-.61 1.448-.38.533.151.914.532.99.99.305-.305.838-.534 1.371-.38.762.227.991.684.991.99 0 .151-.076.304-.152.61l-.077.075s-.076 0-.076-.076a1.413 1.413 0 00-1.143-.61c-.228 0-.38.152-.38.152-.686.534-.305 1.143-.305 1.143s.076.153.304.305c.23.152.61.305.838.23.077 0 .077 0 .153.075v.152c-.153.076-.153.305-.076.686-.153.152 0 .228 0 .228.61.61 1.371.23 1.371.23s.152-.077.305-.306c.152-.228.305-.457.152-.609v-.153h.153c.152.153.533.153.838.077.228-.077.381-.153.381-.153s.533-.457.076-1.219c0 0-.076-.152-.305-.228-.229-.077-.762-.229-1.295.152H8.47l-.077-.076v-.61c.077-.305.534-.686 1.296-.609.533.076.914.381 1.143.762.228-.305.761-.61 1.295-.534.762.076 1.143.534 1.143.838 0 .153 0 .381-.077.61l-.076.076h-.076c-.457-.457-.99-.457-1.219-.38-.229.075-.38.151-.38.228-.458.533 0 1.143 0 1.143s.075.152.38.228c.305.076.686.152.838.076h.152c.077 0 0 .076 0 .153-.152.152 0 .457.077.61a.526.526 0 00.228.304c.23.152.457.23.686.23.23 0 .457-.078.686-.23 0 0 .152-.076.228-.305.076-.228.153-.457.076-.609v-.153c0-.076.077-.076.153 0 .152.076.533.076.838-.076a.568.568 0 00.228-.228s.458-.534-.076-1.22c0 0-.076-.152-.38-.228-.229-.076-.763-.076-1.22.381h-.076s-.076 0-.076-.076c-.076-.229-.076-.457-.076-.61.076-.305.381-.762 1.143-.838.533-.076.99.23 1.295.533.228-.38.61-.762 1.143-.762.762-.076 1.22.305 1.295.61.076.152.076.305 0 .61 0 0 0 .076-.076.076h-.076c-.534-.38-1.067-.305-1.296-.153-.228.077-.304.23-.304.23-.458.685.076 1.142.076 1.218 0 0 .152.152.381.152.304.077.685.077.838-.076h.152c.076 0 .076.076 0 .153-.076.152.076.457.153.61a.908.908 0 00.304.304s.838.381 1.372-.229c0 0 .152-.152.228-.38a.956.956 0 00-.076-.686c-.076 0-.076-.077 0-.153 0-.076.076-.076.152-.076.23.076.534-.076.84-.229a.91.91 0 00.303-.304s.381-.61-.304-1.143c0 0-.153-.153-.38-.153-.23 0-.763.077-1.144.61l-.076.076s-.077 0-.077-.076c-.152-.229-.152-.38-.152-.61 0-.304.23-.838.99-.99.534-.152.991.076 1.372.381.152-.38.533-.838.99-.99.762-.229 1.296.152 1.448.38.076.153.152.305.152.61 0 0 0 .076-.076.076h-.076a1.22 1.22 0 00-1.295.076c-.229.153-.229.305-.305.305a.91.91 0 00.305 1.143s.152.076.381.076c.228 0 .61-.076.838-.228 0 0 .228-.153.305-.305l.076-.076c.076 0 .076.076.076.076s.152.533.61.762c.38.152.914.152 1.447-.077-1.448-.99-2.057-1.904-2.438-2.59M.47 10.971a.73.73 0 00.152.686c.152.152.381.381.61.381h.152c.228 0 .381-.076.61-.152.228-.153.38-.38.38-.61.077-.38-.076-.686-.38-.914h-.077c-.305.152-.762.152-1.219.076a3.723 3.723 0 00-.228.533M.24 12.648c-.076.457.23.838.686.914h.152c.381 0 .762-.305.762-.686 0-.228 0-.457-.152-.609h-.38c-.23 0-.382-.153-.61-.229-.229.076-.458.305-.458.61m.762 1.904a.419.419 0 00.381.23h.076c.152 0 .23-.077.381-.154a.419.419 0 00.23-.38c.075-.305-.154-.686-.535-.686-.152.076-.304.152-.457.152-.076.076-.152.23-.228.381 0 .153 0 .381.152.457m1.067.915c.076.152.228.228.304.228h.077c.228 0 .457-.228.533-.457.076-.305-.152-.533-.457-.61-.305-.076-.534.153-.61.458 0 .152.076.304.153.381m1.142-.305c.077 0 .077 0 0 0 .153-.153.305-.153.458-.153h.076c.305.077.61.305.61.61l.076-.076c.152-.076.228-.153.38-.153h.077c.228 0 .457.23.533.381 0-.076.076-.076.152-.152h.458c-.077-.076-.077-.152-.077-.152s-.076-.077-.152-.229c-.686-.152-2.286-.61-2.97-1.448-.23-.304-.535-.838-.154-1.676.153-.38.381-.609.686-.914.305-.305.533-.61.61-.99H3.82c-.305 0-.686-.077-.914-.305-.076 0-.153-.077-.229-.229a2.496 2.496 0 01-.457.61c.305.228.457.685.381 1.066-.076.305-.229.61-.457.762-.076.076-.229.153-.305.153.152.228.152.457.152.685 0 .23-.152.381-.228.534.305.076.533.457.533.838v.152c.076 0 .153-.076.23-.076h.075c.381.076.61.381.61.762m.076.914a.42.42 0 00.381.23h.076c.152 0 .228 0 .305-.078a.418.418 0 00.228-.38c.076-.305-.152-.534-.457-.61-.152 0-.305 0-.38.076-.077.076-.23.153-.23.305-.076.152 0 .305.077.457m1.295.305c.076.076.152.152.305.152h.076c.228 0 .457-.152.457-.38a.572.572 0 00-.38-.534c-.153 0-.23 0-.306.076-.076.076-.152.153-.152.305-.152.152-.076.305 0 .381m1.143.152c.076.076.152.153.305.153h.076c.076 0 .152 0 .228-.077a.418.418 0 01-.228-.38c0-.153 0-.305.076-.38h-.076c-.153 0-.229 0-.305.075-.076.076-.152.152-.152.304 0 .153 0 .23.076.305m1.22.305c.304 0 .608-.305.608-.61 0-.304-.304-.609-.609-.609s-.61.305-.61.61c0 .304.305.61.61.61m.838.99a.52.52 0 00.533-.534.52.52 0 00-.533-.533.52.52 0 00-.533.533c0 .305.304.533.533.533m-1.372-4.952c0 .533.458.914.915.914s.914-.457.914-.914c0-.152-.076-.38-.152-.457-.305.076-.915.152-1.372-.305a1.018 1.018 0 00-.305.762m.534 2.514a.764.764 0 00.762-.762c0-.228-.153-.457-.305-.609-.229 0-.38-.076-.533-.152-.38.076-.686.381-.686.761 0 .458.305.762.762.762m-1.753-2.819c-.76-.38-1.37-.685-1.904-1.066-.153.228-.305.381-.457.685-.153.381-.305.915.076 1.524.228.23.838.914 2.666 1.295-.152-.228-.304-.609-.38-.99 0-.38-.077-.914 0-1.448m.533-3.733c.076-.076.305-.152.533-.152.305 0 .838 0 1.22.533.075-.152.075-.229.075-.305 0-.228-.228-.686-.838-.838-.457-.152-.99.152-1.295.457 0 0-.076.076-.076 0s-.076-.076-.076-.076c-.077-.38-.458-.838-.915-.99-.609-.153-1.066.076-1.143.304-.076.077-.152.153-.152.305.61-.228 1.143 0 1.372.152.228.153.304.305.38.381.305.762-.076 1.22-.38 1.372 0 0-.077.076-.153.076-.076.533-.38.838-.686 1.22l-.076.075a9.604 9.604 0 001.753.991c.076-.534.304-1.067.762-1.676-.077 0-.153-.077-.153-.077-.228-.152-.38-.304-.38-.38-.306-.229-.382-.915.228-1.372m.762 2.057c-.153 0-.229 0-.38-.076-.687.99-.916 2.057-.687 3.124.23.838.686 1.371.686 1.371l.304.305.153-.152c-.305-.153-.533-.534-.533-.915 0-.457.304-.762.685-.914-.228-.229-.38-.533-.38-.838 0-.38.152-.686.456-.914a.585.585 0 01-.152-.38c-.152-.078-.229-.382-.152-.61m2.057 6.4v.075a.581.581 0 01.381-.152h.076c.152 0 .305.076.381.152.152.077.228.23.228.457v.153a.42.42 0 01.381-.229h.077c.152 0 .304.076.381.153.228 0 .304.152.304.304v.077c0-.077.077-.077.077-.153.076-.152.228-.228.457-.228h.076c.305 0 .533.152.61.457.152-.38.38-.61.685-.838 0-.076-.076-.076-.076-.153h-.076s-.686 0-1.448-.152c-1.067-.229-1.828-.533-2.286-.914-.914-.838-.609-1.829-.38-2.362.152-.305.38-.61.61-.915.38-.533.761-.99.685-1.676-.153 0-.38 0-.61-.076 0 .23-.152.457-.228.61-.077.152-.305.304-.38.381.075.152.151.381.151.533 0 .533-.38.99-.838 1.143.152.152.228.381.228.685 0 .381-.228.762-.533.915a.799.799 0 01.381.685c0 .153 0 .23-.076.381h.152c.305-.076.61.305.61.686m.152.914c.076.077.153.077.305.077h.076c.153 0 .23-.077.305-.153.076-.076.076-.228.076-.305a.414.414 0 00-.533-.38c-.153 0-.229.076-.305.152-.076.076-.076.228-.076.305 0 .076.076.228.152.304m1.143.458c.076.076.152.076.23.076h.075c.076 0 .228-.076.305-.153.076-.076.076-.228.076-.304 0-.077-.076-.229-.153-.305-.076-.076-.152-.076-.304-.076-.077 0-.229.076-.305.152-.076.076-.076.23-.076.305.076.152.076.228.152.305m1.524.304c.152 0 .228-.076.305-.152.076-.076.076-.229.076-.305 0-.228-.229-.38-.457-.38-.077 0-.229.075-.305.152-.076.076-.076.228-.076.304 0 .23.228.381.457.381m.61.305h1.295V20.8c.152 0 .304.076.457.076.152 0 .305 0 .457-.076v-1.524h1.295v-.152c0-.762-.457-1.372-1.143-1.676a.823.823 0 01-.533.228.69.69 0 01-.533-.228c-.686.228-1.143.914-1.143 1.676-.153.076-.153.152-.153.152m1.067 1.448v-1.219h-1.067c.153.533.61.99 1.067 1.22m-.686 1.218v.914h.991v.914h.914v-.99h.991v-.914h-.99v-.915c-.153 0-.306.076-.458.076-.152 0-.305 0-.457-.076v.991zm3.048-2.438h-1.067v1.22c.534-.23.991-.687 1.067-1.22m.686-5.334c-.077.762-.229 1.524-.61 2.286-.152.305-.305.533-.457.762.381 0 2.59-.229 3.581-1.067.838-.762.533-1.676.381-2.133-.076-.076-.076-.152-.152-.229-.915.153-1.829.305-2.743.381m-1.067-.914c0 .457-.229.838-.61 1.067.23.228.381.533.381.838 0 .381-.228.762-.533.914a.799.799 0 01.381.686c0 .152-.076.381-.152.533.076 0 .152.076.152.076.23-.304.457-.609.686-1.066.762-1.6.685-3.353.305-4.8-.229.076-.458.076-.686.076 0 .228-.076.457-.153.61-.076.076-.076.152-.152.228.23.305.381.533.381.838m-.457 1.905c0-.305-.153-.61-.38-.762-.153.076-.306.076-.458.076-.153 0-.305 0-.457-.076-.229.152-.38.457-.38.762 0 .457.38.838.837.838.457.076.838-.305.838-.838m-.533 1.066c-.077 0-.229.077-.305.077-.076 0-.229 0-.305-.077-.229.077-.38.305-.38.61 0 .381.304.686.685.686a.682.682 0 00.685-.686c0-.305-.152-.533-.38-.61m-1.905.153c.228.457.457.762.685 1.067.077 0 .153-.077.153-.077-.076-.152-.153-.304-.153-.533 0-.305.153-.533.381-.686-.304-.152-.533-.533-.533-.914 0-.305.152-.61.381-.838a1.217 1.217 0 01-.609-1.067c0-.305.076-.609.304-.838-.076-.076-.076-.152-.152-.228a1.441 1.441 0 01-.152-.61c-.229 0-.458 0-.686-.076-.305 1.447-.38 3.124.381 4.8m-3.505-2.667c-.076.076-.076.153-.152.23-.229.456-.458 1.446.381 2.132.914.838 3.123 1.067 3.504 1.067-.152-.229-.304-.457-.457-.762-.38-.762-.533-1.524-.609-2.286-.838 0-1.753-.152-2.667-.38m1.676-2.59c0 .075-.152.151-.457.227.076.762-.305 1.296-.762 1.83-.076.151-.228.304-.305.456.838.152 1.677.305 2.591.381-.076-.838.076-1.752.305-2.514-.229-.077-.305-.229-.38-.305a1.102 1.102 0 01.075-1.448c.076-.076.228-.228.457-.304.305-.077.762-.077 1.295.304v-.38c0-.229-.305-.61-.99-.686-.534-.077-.99.304-1.143.61l-.076.075c-.076 0-.076 0-.076-.076a1.378 1.378 0 00-1.067-.838c-.686-.076-.99.305-1.067.457 0 .076-.076.23 0 .381.61-.38 1.067-.228 1.372-.076.228.076.381.23.381.381a1.277 1.277 0 01-.153 1.524m3.43 1.752c-.306 0-.535-.076-.763-.228h-.076c-.153.152-.229.38-.229.685 0 .61.457 1.067 1.067 1.067.61 0 1.066-.457 1.066-1.067 0-.228-.076-.457-.228-.685h-.076a1.29 1.29 0 01-.762.228m3.962-1.524c-.305-.076-.457-.228-.534-.228-.076-.076-.609-.61-.152-1.448l.381-.38a1.743 1.743 0 011.371.075v-.38c-.076-.229-.38-.534-1.066-.458a1.374 1.374 0 00-1.067.838l-.076.077c-.076 0-.076 0-.076-.077a1.586 1.586 0 00-1.219-.609c-.686.076-.915.457-.99.686v.38c.532-.457 1.066-.38 1.294-.304.23.076.381.152.457.304.61.686.153 1.372.077 1.448 0 .076-.153.152-.38.305.227.762.303 1.676.303 2.514.915-.076 1.753-.228 2.591-.38-.076-.153-.229-.306-.305-.382-.305-.685-.686-1.295-.609-1.98m-1.905 6.704a.581.581 0 01.381-.152h.076c.152 0 .305.076.457.228 0 0 .076.076.076.153v-.077c0-.152.077-.304.23-.457a.583.583 0 01.38-.152h.076a.42.42 0 01.381.228v-.152c0-.305.305-.609.686-.609h.076c.152 0 .305.076.381.152v-.076c0-.38.305-.762.762-.762h.152c-.076-.076-.076-.229-.076-.38a.8.8 0 01.381-.687c-.305-.152-.533-.533-.533-.914 0-.229.076-.457.228-.686-.533-.152-.838-.609-.838-1.143 0-.228.076-.38.152-.533h-.076a.926.926 0 01-.38-.38c-.077-.153-.229-.382-.229-.61-.153.076-.38.076-.534.076-.076.685.305 1.143.686 1.676.23.305.457.533.61.914.228.534.533 1.524-.38 2.362-.458.381-1.22.762-2.287.914-.762.153-1.448.153-1.448.153h-.076c0 .076-.076.076-.076.152.305.23.61.533.762.914-.229.077-.152-.076 0-.152m0 .762c.076.076.152.152.305.152h.076c.076 0 .152 0 .228-.076.077-.076.153-.152.153-.305 0-.076 0-.228-.076-.304-.077-.077-.153-.153-.305-.153-.076 0-.229 0-.305.076-.076.077-.152.153-.152.305 0 .076.076.23.076.305m1.22-.229c.075.077.151.153.304.153h.076c.228 0 .381-.153.457-.38 0-.077 0-.23-.076-.306-.153-.076-.229-.152-.38-.152-.077 0-.23 0-.306.076-.076.076-.152.152-.152.305 0 .076 0 .228.076.304m1.448-.304a.574.574 0 00.533-.38.574.574 0 00-.38-.535.573.573 0 00-.534.381.415.415 0 00.381.534m1.22-.458a.52.52 0 00.532-.533.52.52 0 00-.533-.533.52.52 0 00-.534.533.52.52 0 00.534.533m.914-.99c.305 0 .61-.305.61-.61 0-.304-.305-.609-.61-.609s-.61.305-.61.61c0 .304.23.61.61.61m.838-.153c.305-.077.457-.305.457-.534 0-.228-.305-.457-.533-.38h-.076c.076.076.076.228.076.38 0 .153-.076.305-.153.457.077.077.153.077.23.077m.761-2.667c-.076.381-.229.762-.38.99 1.828-.38 2.437-1.066 2.666-1.295.457-.609.304-1.143.076-1.524l-.457-.685c-.534.381-1.143.685-1.829 1.066.076.534.076 1.067-.076 1.448m-2.438.61c0 .457.381.761.762.761a.764.764 0 00.762-.762c0-.38-.305-.685-.686-.76-.152.075-.38.151-.533.151-.153.152-.305.381-.305.61m.381-.839c.533 0 .914-.457.914-.914 0-.305-.152-.609-.38-.762-.458.457-1.068.381-1.372.305-.077.152-.153.305-.153.457 0 .457.457.914.991.914m.838-2.285a.581.581 0 01-.153.381c.305.228.458.533.458.914 0 .305-.153.61-.38.838.38.152.684.533.684.914s-.228.762-.533.915c.076 0 .152.076.152.152.077-.152.23-.305.23-.305s1.675-2.209-.077-4.57c-.153.075-.229.075-.38.075.075.305 0 .61 0 .686M22.64 8.61c0-.076.152-.304.381-.38.23-.153.762-.38 1.371-.153 0-.152-.076-.228-.076-.305-.076-.228-.533-.457-1.143-.304a1.318 1.318 0 00-.914.99c0 .076 0 .076-.076.076h-.076c-.229-.305-.762-.533-1.296-.457-.609.152-.838.61-.838.838 0 .076 0 .23.077.305.457-.533.99-.61 1.22-.533.227 0 .38.076.532.152.61.533.533 1.143.305 1.448 0 .076-.153.228-.38.381-.077 0-.077.076-.154.076.381.61.61 1.143.762 1.676a11.95 11.95 0 001.753-.99l-.077-.077c-.304-.38-.609-.685-.685-1.219a.334.334 0 01-.229-.076c-.305-.229-.762-.686-.457-1.448m-.609 7.086c.076-.152.228-.228.457-.228h.076c.152 0 .381.076.457.228 0-.152.076-.228.152-.38.153-.153.305-.229.458-.306h.076c.152 0 .381.077.457.153 0-.153.076-.305.152-.457.153-.153.305-.229.457-.305h.077c.076 0 .152 0 .228.076v-.152c0-.229 0-.457.153-.61.076-.152.228-.228.38-.305a.69.69 0 01-.228-.533c0-.228 0-.457.152-.686-.38-.152-.685-.457-.762-.914-.076-.38.077-.762.381-1.067-.228-.152-.38-.457-.457-.609-.076.152-.228.152-.228.228-.229.153-.61.305-.915.305h-.076c.076.381.381.686.61.991.228.304.457.533.685.914.153.381.381.99-.152 1.676-.61.838-2.21 1.295-2.97 1.448-.078.152-.154.228-.154.228s-.076.077-.076.153c.152 0 .381.076.457.228.076 0 .076 0 .153-.076m.228.762c.076.076.152.076.305.076h.076c.23 0 .457-.305.381-.533 0-.229-.305-.457-.533-.38-.153 0-.229.075-.305.151-.076.153-.076.305-.076.381 0 .153.076.23.152.305m1.143-.305c.076.076.23.076.305.076h.076a.42.42 0 00.381-.228c.076-.152.152-.229.076-.38-.076-.306-.305-.534-.609-.458a.418.418 0 00-.38.228c-.078.153-.154.23-.078.381.077.153.153.305.23.381m1.294-.533c.153.076.23.152.381.076a.418.418 0 00.381-.228c.076-.153.152-.229.076-.38a.418.418 0 00-.228-.382c-.153-.077-.229-.153-.38-.077a.42.42 0 00-.382.23c-.076.151-.153.228-.076.38a.42.42 0 00.228.381m.991-.914a.581.581 0 00.381.152h.076a.731.731 0 00.533-.686.42.42 0 00-.228-.38c-.153 0-.305-.077-.458-.153a.42.42 0 00-.38.23c-.077.151-.153.303-.077.456-.076.152 0 .304.153.381m1.6-2.057c-.077-.305-.229-.534-.457-.61a.869.869 0 01-.61.23h-.38c-.153.151-.153.38-.153.608.076.381.381.686.762.686h.152c.381-.076.686-.534.686-.914m-.305-1.677c0-.228-.152-.38-.305-.533-.533.152-.914.152-1.295-.076a1.258 1.258 0 00-.38.914c.075.533.608.914 1.142.838.533-.152.914-.609.838-1.143m-.076-.609c.152.152.228.381.304.61.077.38-.076.685-.228.914.305.152.457.381.533.762.076.533-.228.99-.762 1.142a.581.581 0 01.153.381c.076.457-.229.838-.686.915-.152 0-.305 0-.457-.077v.077c0 .228 0 .381-.153.533a1.585 1.585 0 01-.457.305c-.228 0-.38 0-.533-.153h-.076c0 .153-.076.305-.153.457a1.565 1.565 0 01-.457.305c-.228 0-.38 0-.533-.152-.076 0-.076-.076-.076-.076-.076.304-.305.533-.534.533-.152 0-.38 0-.533-.152-.076 0-.076-.077-.152-.153a.573.573 0 01-.534.381c-.152 0-.304 0-.457-.076-.152.152-.305.152-.533.152h-.229c.077.077.077.23.077.305a.764.764 0 01-.762.762.692.692 0 01-.534-.229v.153c-.076.381-.38.61-.762.61-.152 0-.304-.077-.457-.229v.152c-.076.381-.38.61-.685.534-.153 0-.305-.077-.458-.229.077-.152 0-.152 0-.229v.077c0 .152-.076.304-.228.457-.153.076-.305.152-.457.152a.418.418 0 01-.38-.228v.152c0 .838-.535 1.6-1.297 1.828v.686h.991v1.295h-.99V24h-1.296v-.99h-.99v-1.296h.99v-.762c-.762-.304-1.295-.99-1.295-1.828v-.153a.579.579 0 01-.38.153.634.634 0 01-.763-.457v-.077c0 .077 0 .077-.076.153-.076.152-.229.228-.457.228-.153 0-.305 0-.457-.152-.153-.076-.229-.229-.229-.457v-.153c-.076.153-.228.23-.457.23-.38.075-.686-.23-.762-.61v-.153a.693.693 0 01-.533.23.764.764 0 01-.762-.763c0-.076 0-.229.076-.305h-.229c-.228 0-.38-.076-.533-.152 0 .228-.152.228-.305.228-.152 0-.304-.152-.457-.228 0-.077-.076-.077-.076-.153-.076.153-.305.305-.61.23-.152 0-.304-.154-.457-.23-.076-.076-.076-.152-.152-.305l-.076.077c-.153.152-.305.152-.534.152-.38-.076-.609-.38-.609-.762a.592.592 0 01-.61.153c-.228 0-.38-.153-.457-.305-.076-.153-.152-.38-.152-.534v-.076c-.153.076-.305.076-.457.076-.229 0-.38-.152-.534-.304-.152-.153-.152-.38-.152-.61 0-.152.076-.228.152-.38-.533-.077-.838-.61-.762-1.144.077-.304.23-.609.534-.762l-.076-.076C.316 11.505.24 11.2.24 10.82c0-.229.152-.38.23-.61 0 .077-.154.077-.23 0l-.076-.076v-.076c1.447-1.219 2.057-2.209 2.514-2.895.076-.153.153-.229.23-.38.456-.61 1.065-.61 1.065-.61 3.124.99 6.4 1.523 9.677 1.523 3.276 0 6.552-.533 9.676-1.524.152 0 .685 0 1.066.61.077.076.153.228.23.381.38.686 1.066 1.6 2.513 2.895 0 0 .076.076 0 .076 0 0 0 .076-.076.076.076.077 0 .077-.152.153" fill="#86754d"/><path d="M7.86 11.048a.61.61 0 100-1.22.61.61 0 000 1.22M19.593 11.048a.61.61 0 100-1.22.61.61 0 000 1.22M13.726 11.505a.61.61 0 100-1.22.61.61 0 000 1.22" fill="#86754d"/></g></svg>